<svg width="64" height="65" viewBox="0 0 64 65" fill="none" xmlns="http://www.w3.org/2000/svg">
<path d="M38.5257 22.8929C41.0898 22.8929 43.1685 20.8142 43.1685 18.25C43.1685 15.6859 41.0898 13.6072 38.5257 13.6072C35.9615 13.6072 33.8828 15.6859 33.8828 18.25C33.8828 20.8142 35.9615 22.8929 38.5257 22.8929Z" stroke="#F8F5F0" stroke-width="4" stroke-linecap="round" stroke-linejoin="round"/>
<path d="M19.9542 46.1072C21.2363 46.1072 22.2757 45.0679 22.2757 43.7858C22.2757 42.5037 21.2363 41.4644 19.9542 41.4644C18.6722 41.4644 17.6328 42.5037 17.6328 43.7858C17.6328 45.0679 18.6722 46.1072 19.9542 46.1072Z" stroke="#F8F5F0" stroke-width="4" stroke-linecap="round" stroke-linejoin="round"/>
<path d="M19.9544 29.8572C22.5185 29.8572 24.5972 27.7785 24.5972 25.2144C24.5972 22.6502 22.5185 20.5715 19.9544 20.5715C17.3902 20.5715 15.3115 22.6502 15.3115 25.2144C15.3115 27.7785 17.3902 29.8572 19.9544 29.8572Z" stroke="#F8F5F0" stroke-width="4" stroke-linecap="round" stroke-linejoin="round"/>
<path d="M43.2615 56.6929C43.2097 55.7921 42.8967 54.9263 42.3608 54.2006C41.8249 53.4754 41.0892 52.9215 40.2436 52.6071C38.1436 51.9167 36.3588 50.5002 35.2099 48.612C34.0611 46.7233 33.6235 44.4871 33.9761 42.3049C34.3286 40.1227 35.448 38.1379 37.133 36.7072C38.818 35.2766 40.9581 34.4939 43.1686 34.5H51.8507C53.3396 34.5042 54.8082 34.1501 56.1318 33.4678C57.4551 32.7854 58.5953 31.7947 59.4557 30.5793C60.316 29.3638 60.8713 27.9593 61.0751 26.4842C61.2789 25.0091 61.1248 23.5066 60.6257 22.1036C58.7792 16.8895 55.5348 12.2832 51.2476 8.78809C46.9603 5.2929 41.795 3.04327 36.3158 2.28495C30.8366 1.52663 25.2544 2.28881 20.179 4.4882C15.1037 6.68762 10.7304 10.2396 7.53705 14.7562C4.34369 19.2727 2.45309 24.58 2.0718 30.0983C1.6905 35.6166 2.83318 41.1335 5.37501 46.0463C7.91679 50.9589 11.76 55.079 16.4846 57.9552C21.2092 60.832 26.6336 62.3548 32.165 62.3571C34.8967 62.3646 37.616 61.9899 40.2436 61.2429C41.2087 60.9726 42.0444 60.364 42.5984 59.5287C43.1524 58.6935 43.3877 57.6874 43.2615 56.6929Z" stroke="#F8F5F0" stroke-width="4" stroke-linecap="round" stroke-linejoin="round"/>
</svg>
