<svg width="64" height="60" viewBox="0 0 64 60" fill="none" xmlns="http://www.w3.org/2000/svg">
<path d="M56.8571 2H6.57143C4.0467 2 2 4.0787 2 6.64286V25.2143C2 27.7784 4.0467 29.8571 6.57143 29.8571H56.8571C59.3819 29.8571 61.4286 27.7784 61.4286 25.2143V6.64286C61.4286 4.0787 59.3819 2 56.8571 2Z" stroke="#F8F5F0" stroke-width="4" stroke-linecap="round" stroke-linejoin="round"/>
<path d="M15.7144 18.25C16.9768 18.25 18.0001 17.2107 18.0001 15.9286C18.0001 14.6465 16.9768 13.6072 15.7144 13.6072C14.4521 13.6072 13.4287 14.6465 13.4287 15.9286C13.4287 17.2107 14.4521 18.25 15.7144 18.25Z" stroke="#F8F5F0" stroke-width="4" stroke-linecap="round" stroke-linejoin="round"/>
<path d="M34 15.9285H50" stroke="#F8F5F0" stroke-width="4" stroke-linecap="round" stroke-linejoin="round"/>
<path d="M6.57143 29.8572C5.35899 29.8572 4.19625 30.3463 3.33894 31.217C2.48163 32.0877 2 33.2687 2 34.5V53.0715C2 54.3027 2.48163 55.4839 3.33894 56.3544C4.19625 57.225 5.35899 57.7143 6.57143 57.7143H56.8571C58.0695 57.7143 59.2325 57.225 60.0896 56.3544C60.9467 55.4839 61.4286 54.3027 61.4286 53.0715V34.5C61.4286 33.2687 60.9467 32.0877 60.0896 31.217C59.2325 30.3463 58.0695 29.8572 56.8571 29.8572" stroke="#F8F5F0" stroke-width="4" stroke-linecap="round" stroke-linejoin="round"/>
<path d="M15.7144 46.1072C16.9768 46.1072 18.0001 45.0677 18.0001 43.7858C18.0001 42.5037 16.9768 41.4644 15.7144 41.4644C14.4521 41.4644 13.4287 42.5037 13.4287 43.7858C13.4287 45.0677 14.4521 46.1072 15.7144 46.1072Z" stroke="#F8F5F0" stroke-width="4" stroke-linecap="round" stroke-linejoin="round"/>
<path d="M34 43.7856H50" stroke="#F8F5F0" stroke-width="4" stroke-linecap="round" stroke-linejoin="round"/>
</svg>
