<svg width="59" height="65" viewBox="0 0 59 65" fill="none" xmlns="http://www.w3.org/2000/svg">
<path d="M21.1906 10.125L23.1563 4.97143C23.4878 4.09887 24.0711 3.34834 24.8297 2.81813C25.5883 2.28792 26.4868 2.00276 27.4077 2H31.1563C32.0771 2.00276 32.9758 2.28792 33.7343 2.81813C34.493 3.34834 35.0762 4.09887 35.4077 4.97143L37.3734 10.125L44.0475 14.025L49.4418 13.1893C50.3401 13.0655 51.2544 13.2156 52.0686 13.6207C52.8823 14.0258 53.5593 14.6675 54.0132 15.4643L55.8418 18.7143C56.3104 19.5238 56.5266 20.4585 56.4612 21.3952C56.3959 22.3318 56.0525 23.2264 55.4761 23.9607L52.139 28.2786V36.0786L55.5675 40.3964C56.144 41.1308 56.4873 42.0253 56.5527 42.962C56.618 43.8986 56.4018 44.8334 55.9332 45.6429L54.1047 48.8929C53.6507 49.6896 52.9737 50.3312 52.16 50.7365C51.3458 51.1414 50.4315 51.2918 49.5332 51.1679L44.139 50.3321L37.4649 54.2321L35.4991 59.3857C35.1676 60.2581 34.5844 61.0089 33.8258 61.5391C33.0672 62.0693 32.1686 62.3544 31.2477 62.3571H27.4077C26.4868 62.3544 25.5883 62.0693 24.8297 61.5391C24.0711 61.0089 23.4878 60.2581 23.1563 59.3857L21.1906 54.2321L14.5163 50.3321L9.122 51.1679C8.2238 51.2918 7.30961 51.1414 6.49562 50.7365C5.68168 50.3312 5.00465 49.6896 4.55057 48.8929L2.722 45.6429C2.25342 44.8334 2.03756 43.8986 2.10284 42.962C2.16812 42.0253 2.51153 41.1308 3.08771 40.3964L6.42485 36.0786V28.2786L2.99628 23.9607C2.4201 23.2264 2.07669 22.3318 2.01141 21.3952C1.94613 20.4585 2.162 19.5238 2.63057 18.7143L4.45914 15.4643C4.91322 14.6675 5.59025 14.0258 6.40419 13.6207C7.21818 13.2156 8.13237 13.0655 9.03057 13.1893L14.4249 14.025L21.1906 10.125ZM20.1391 32.1786C20.1391 34.0151 20.6754 35.8104 21.68 37.3374C22.6846 38.8645 24.1125 40.0546 25.7832 40.7575C27.4538 41.4602 29.2921 41.6441 31.0657 41.2859C32.8392 40.9276 34.4683 40.0432 35.747 38.7445C37.0256 37.4459 37.8964 35.7914 38.2492 33.9901C38.6019 32.1889 38.4209 30.3218 37.7289 28.6251C37.0369 26.9283 35.865 25.4781 34.3615 24.4578C32.8579 23.4375 31.0903 22.8929 29.282 22.8929C26.8572 22.8929 24.5316 23.8712 22.817 25.6126C21.1024 27.354 20.1391 29.7159 20.1391 32.1786Z" stroke="#F8F5F0" stroke-width="4" stroke-linecap="round" stroke-linejoin="round"/>
</svg>
