<svg width="47" height="63" viewBox="0 0 47 63" fill="none" xmlns="http://www.w3.org/2000/svg">
<path d="M2 11.3267C2 6.17574 6.23998 2 11.4702 2H23.0449V20.6535H11.4702C6.23998 20.6535 2 16.4777 2 11.3267Z" stroke="#F8F5F0" stroke-width="4" stroke-linecap="round" stroke-linejoin="round"/>
<path d="M44.0931 11.3267C44.0931 6.17574 39.8535 2 34.623 2H23.0483V20.6535H34.623C39.8535 20.6535 44.0931 16.4777 44.0931 11.3267Z" stroke="#F8F5F0" stroke-width="4" stroke-linecap="round" stroke-linejoin="round"/>
<path d="M44.0898 31.0149C44.0898 25.2916 39.3788 20.6519 33.5674 20.6519C27.756 20.6519 23.0449 25.2916 23.0449 31.0149C23.0449 36.7382 27.756 41.3779 33.5674 41.3779C39.3788 41.3779 44.0898 36.7382 44.0898 31.0149Z" stroke="#F8F5F0" stroke-width="4" stroke-linecap="round" stroke-linejoin="round"/>
<path d="M2 50.7095C2 45.5583 6.23998 41.3826 11.4702 41.3826H23.0449V49.6732C23.0449 55.3965 18.3339 60.0361 12.5225 60.0361H11.4702C6.23998 60.0361 2 55.8603 2 50.7095Z" stroke="#F8F5F0" stroke-width="4" stroke-linecap="round" stroke-linejoin="round"/>
<path d="M2 31.0161C2 25.2928 6.71108 20.6531 12.5225 20.6531H23.0449V41.3791H12.5225C6.71108 41.3791 2 36.7395 2 31.0161Z" stroke="#F8F5F0" stroke-width="4" stroke-linecap="round" stroke-linejoin="round"/>
</svg>
