<svg width="65" height="58" viewBox="0 0 65 58" fill="none" xmlns="http://www.w3.org/2000/svg">
<path d="M60.0357 2H4.32143C3.03934 2 2 3.03935 2 4.32143V41.4643C2 42.7462 3.03934 43.7857 4.32143 43.7857H60.0357C61.3176 43.7857 62.3571 42.7462 62.3571 41.4643V4.32143C62.3571 3.03935 61.3176 2 60.0357 2Z" stroke="#F8F5F0" stroke-width="4" stroke-linecap="round" stroke-linejoin="round"/>
<path d="M27.5359 43.7856L22.8931 55.3928" stroke="#F8F5F0" stroke-width="4" stroke-linecap="round" stroke-linejoin="round"/>
<path d="M36.8213 43.7856L41.4641 55.3928" stroke="#F8F5F0" stroke-width="4" stroke-linecap="round" stroke-linejoin="round"/>
<path d="M18.25 55.3928H46.1071" stroke="#F8F5F0" stroke-width="4" stroke-linecap="round" stroke-linejoin="round"/>
<path d="M34.5 2V43.7857" stroke="#F8F5F0" stroke-width="4" stroke-linecap="round" stroke-linejoin="round"/>
<path d="M13.6069 15.9285H22.8926" stroke="#F8F5F0" stroke-width="4" stroke-linecap="round" stroke-linejoin="round"/>
<path d="M13.6069 29.8572H18.2498" stroke="#F8F5F0" stroke-width="4" stroke-linecap="round" stroke-linejoin="round"/>
<path d="M34.5 25.2148L40.1179 20.5719C41.7829 19.1942 43.8763 18.4404 46.0375 18.4404C48.1987 18.4404 50.2922 19.1942 51.9571 20.5719L62.3571 29.8576" stroke="#F8F5F0" stroke-width="4" stroke-linecap="round" stroke-linejoin="round"/>
</svg>
